<?xml version="1.0" standalone="no"?>
<svg xmlns="http://www.w3.org/2000/svg" viewBox="0 0 1440 320">
    <defs>
        <linearGradient id="gradient" x1="0%" y1="0%" x2="100%" y2="0%">
            <stop offset="0%"   stop-color="#f5d313"/>
            <stop offset="100%" stop-color="#FF9749"/>
        </linearGradient>
    </defs>
    <path fill="url(#gradient)" fill-opacity="1" d="M0,128L48,154.7C96,181,192,235,288,256C384,277,480,267,576,240C672,213,768,171,864,154.7C960,139,1056,149,1152,170.7C1248,192,1344,224,1392,240L1440,256L1440,0L1392,0C1344,0,1248,0,1152,0C1056,0,960,0,864,0C768,0,672,0,576,0C480,0,384,0,288,0C192,0,96,0,48,0L0,0Z"></path>
    <!-- <path fill="url(#gradient)" fill-opacity="1" d="M0,224L40,218.7C80,213,160,203,240,170.7C320,139,400,85,480,58.7C560,32,640,32,720,69.3C800,107,880,181,960,229.3C1040,277,1120,299,1200,282.7C1280,267,1360,213,1400,186.7L1440,160L1440,0L1400,0C1360,0,1280,0,1200,0C1120,0,1040,0,960,0C880,0,800,0,720,0C640,0,560,0,480,0C400,0,320,0,240,0C160,0,80,0,40,0L0,0Z"></path> -->
</svg>